<svg width="120" height="76" viewBox="0 0 120 76" fill="none" xmlns="http://www.w3.org/2000/svg">
<path d="M0 30.0319V7.5646H5.59787V10.5089H6.41046C6.77161 9.72376 7.44877 8.98391 8.44194 8.28935C9.43511 7.5646 10.9399 7.20223 12.9563 7.20223C14.7019 7.20223 16.2218 7.6099 17.5159 8.42524C18.8401 9.21039 19.8634 10.3126 20.5857 11.7319C21.308 13.121 21.6692 14.7517 21.6692 16.624V30.0319H15.981V17.077C15.981 15.3859 15.5597 14.1176 14.717 13.272C13.9044 12.4265 12.7306 12.0037 11.1957 12.0037C9.45016 12.0037 8.09584 12.5926 7.13276 13.7703C6.16969 14.9178 5.68815 16.5334 5.68815 18.6171V30.0319H0Z" fill="#272727"/>
<path d="M34.9059 30.6661C32.6788 30.6661 30.7225 30.198 29.0372 29.2619C27.3518 28.2955 26.0426 26.9517 25.1096 25.2304C24.1766 23.5092 23.7102 21.5161 23.7102 19.2512V18.7077C23.7102 16.4126 24.1766 14.4045 25.1096 12.6832C26.0426 10.9619 27.3367 9.63317 28.992 8.69703C30.6473 7.73069 32.5434 7.24752 34.6802 7.24752C36.7568 7.24752 38.5927 7.70049 40.1877 8.60643C41.7828 9.48217 43.0318 10.7505 43.9347 12.4114C44.8376 14.0723 45.289 16.02 45.289 18.2547V19.8854H27.2765C27.3668 22.271 28.1343 24.1433 29.5789 25.5022C31.0235 26.8309 32.8293 27.4953 34.9962 27.4953C36.8922 27.4953 38.3519 27.0574 39.3752 26.1817C40.3984 25.3059 41.1809 24.2641 41.7226 23.0562L44.7924 24.551C44.341 25.4871 43.709 26.4233 42.8964 27.3594C42.1139 28.2955 41.0756 29.0807 39.7815 29.7148C38.5174 30.349 36.8922 30.6661 34.9059 30.6661ZM27.3217 16.9411H41.6775C41.5571 14.8876 40.8499 13.2871 39.5557 12.1396C38.2917 10.9921 36.6665 10.4183 34.6802 10.4183C32.6637 10.4183 31.0085 10.9921 29.7143 12.1396C28.4202 13.2871 27.6226 14.8876 27.3217 16.9411Z" fill="#272727"/>
<path d="M56.7916 30.6661C54.0529 30.6661 51.7355 30.0319 49.8394 28.7636C47.9735 27.4953 46.8449 25.4871 46.4536 22.7391L49.8394 21.9691C50.0802 23.4186 50.5316 24.5661 51.1937 25.4116C51.8558 26.227 52.6684 26.8158 53.6315 27.1782C54.6247 27.5104 55.678 27.6765 56.7916 27.6765C58.4469 27.6765 59.7561 27.3443 60.7191 26.6799C61.6822 26.0156 62.1637 25.1247 62.1637 24.0074C62.1637 22.8599 61.6973 22.0596 60.7643 21.6067C59.8614 21.1235 58.6124 20.7309 57.0173 20.429L55.1664 20.1119C53.7519 19.8703 52.4578 19.4928 51.284 18.9794C50.1103 18.4661 49.1773 17.7715 48.4851 16.8958C47.7929 16.02 47.4468 14.9178 47.4468 13.5891C47.4468 11.596 48.2142 10.0408 49.7491 8.92351C51.284 7.80619 53.3155 7.24752 55.8436 7.24752C58.3415 7.24752 60.358 7.82128 61.8929 8.96881C63.4579 10.0861 64.4661 11.6715 64.9175 13.725L61.5769 14.5856C61.306 12.9851 60.6589 11.8678 59.6357 11.2337C58.6124 10.5693 57.3484 10.2371 55.8436 10.2371C54.3388 10.2371 53.15 10.524 52.2772 11.0978C51.4044 11.6413 50.968 12.4567 50.968 13.5438C50.968 14.6007 51.3743 15.3859 52.1869 15.8993C53.0296 16.3824 54.1431 16.7448 55.5276 16.9864L57.3785 17.3035C58.9435 17.5752 60.3429 17.9527 61.5769 18.4359C62.8409 18.8889 63.8341 19.5532 64.5564 20.429C65.3088 21.3047 65.685 22.4522 65.685 23.8715C65.685 26.0458 64.8724 27.7218 63.2472 28.8995C61.6521 30.0772 59.5002 30.6661 56.7916 30.6661Z" fill="#272727"/>
<path d="M75.7341 30.0319C74.4701 30.0319 73.492 29.6846 72.7998 28.9901C72.1376 28.2955 71.8066 27.3443 71.8066 26.1364V11.0072H65.1704V7.88168H71.8066V0H75.373V7.88168H82.596V11.0072H75.373V25.5928C75.373 26.4988 75.8094 26.9517 76.6821 26.9517H81.6028V30.0319H75.7341Z" fill="#272727"/>
<path d="M94.1702 30.6661C91.9431 30.6661 89.9718 30.198 88.2563 29.2619C86.5709 28.3257 85.2467 27.0121 84.2836 25.321C83.3507 23.5997 82.8842 21.5765 82.8842 19.2512V18.6624C82.8842 16.3673 83.3507 14.3592 84.2836 12.6379C85.2467 10.9166 86.5709 9.58787 88.2563 8.65173C89.9718 7.71559 91.9431 7.24752 94.1702 7.24752C96.3973 7.24752 98.3535 7.71559 100.039 8.65173C101.754 9.58787 103.079 10.9166 104.012 12.6379C104.975 14.3592 105.456 16.3673 105.456 18.6624V19.2512C105.456 21.5765 104.975 23.5997 104.012 25.321C103.079 27.0121 101.754 28.3257 100.039 29.2619C98.3535 30.198 96.3973 30.6661 94.1702 30.6661ZM94.1702 27.45C96.5177 27.45 98.3836 26.7101 99.7681 25.2304C101.183 23.7205 101.89 21.6973 101.89 19.1606V18.753C101.89 16.2163 101.183 14.2082 99.7681 12.7285C98.3836 11.2186 96.5177 10.4636 94.1702 10.4636C91.8528 10.4636 89.9868 11.2186 88.5723 12.7285C87.1578 14.2082 86.4505 16.2163 86.4505 18.753V19.1606C86.4505 21.6973 87.1578 23.7205 88.5723 25.2304C89.9868 26.7101 91.8528 27.45 94.1702 27.45Z" fill="#272727"/>
<path d="M108.263 30.0319V7.88168H111.739V10.5995H112.371C112.762 9.63317 113.364 8.92351 114.176 8.47054C114.989 8.01757 116.057 7.79109 117.382 7.79109H120V11.0525H117.156C115.561 11.0525 114.267 11.5054 113.274 12.4114C112.31 13.2871 111.829 14.6611 111.829 16.5334V30.0319H108.263Z" fill="#272727"/>
<path d="M0 66.9406V35.2327H5.68815V47.2364H6.50075C6.74152 46.7532 7.11772 46.2701 7.62935 45.7869C8.14098 45.3037 8.81814 44.9111 9.66083 44.6092C10.5336 44.277 11.6321 44.1109 12.9563 44.1109C14.7019 44.1109 16.2218 44.5186 17.5159 45.3339C18.8401 46.1191 19.8634 47.2213 20.5857 48.6406C21.308 50.0297 21.6692 51.6604 21.6692 53.5327V66.9406H15.981V53.9856C15.981 52.2946 15.5597 51.0262 14.717 50.1807C13.9044 49.3352 12.7306 48.9124 11.1957 48.9124C9.45016 48.9124 8.09584 49.5012 7.13276 50.679C6.16969 51.8265 5.68815 53.4421 5.68815 55.5257V66.9406H0Z" fill="#272727"/>
<path d="M33.2356 67.3483C31.6405 67.3483 30.1658 67.001 28.8114 66.3064C27.4872 65.6119 26.4339 64.5851 25.6514 63.2262C24.899 61.8371 24.5228 60.1611 24.5228 58.1983V44.7904H28.0891V57.9265C28.0891 60.1309 28.6309 61.7314 29.7143 62.728C30.8279 63.7245 32.3176 64.2228 34.1836 64.2228C36.2903 64.2228 38.0208 63.5282 39.3752 62.1391C40.7295 60.75 41.4066 58.6814 41.4066 55.9334V44.7904H44.973V66.9406H41.4969V63.1809H40.8649C40.3834 64.2379 39.5557 65.2042 38.382 66.0799C37.2082 66.9255 35.4928 67.3483 33.2356 67.3483Z" fill="#272727"/>
<path d="M47.7406 55.9787V55.3446C47.7406 53.0193 48.2071 51.0262 49.14 49.3654C50.073 47.7045 51.337 46.421 52.9321 45.5151C54.5272 44.6092 56.2728 44.1562 58.1688 44.1562C60.4862 44.1562 62.2619 44.6092 63.4958 45.5151C64.7599 46.3908 65.6929 47.3723 66.2948 48.4594H66.9268V44.7904H70.3126V72.1045C70.3126 73.3124 69.9815 74.2636 69.3194 74.9582C68.6573 75.6527 67.6942 76 66.4302 76H51.4424V72.8292H65.4822C66.3851 72.8292 66.8365 72.3762 66.8365 71.4703V63.0451H66.2045C65.8433 63.7094 65.3317 64.3587 64.6696 64.9928C64.0075 65.627 63.1497 66.1554 62.0964 66.5782C61.043 66.9708 59.7338 67.1671 58.1688 67.1671C56.2728 67.1671 54.5272 66.7141 52.9321 65.8082C51.337 64.9022 50.073 63.6188 49.14 61.9579C48.2071 60.2668 47.7406 58.2738 47.7406 55.9787ZM59.1169 63.9963C61.4042 63.9963 63.2551 63.2715 64.6696 61.822C66.1142 60.3725 66.8365 58.3795 66.8365 55.8428V55.4804C66.8365 52.9136 66.1142 50.9206 64.6696 49.5012C63.2551 48.0517 61.4042 47.327 59.1169 47.327C56.8597 47.327 54.9937 48.0517 53.519 49.5012C52.0744 50.9206 51.3521 52.9136 51.3521 55.4804V55.8428C51.3521 58.3795 52.0744 60.3725 53.519 61.822C54.9937 63.2715 56.8597 63.9963 59.1169 63.9963Z" fill="#272727"/>
<path d="M84.3796 67.5748C82.1525 67.5748 80.1812 67.1067 78.4657 66.1705C76.7803 65.2344 75.4561 63.9208 74.493 62.2297C73.56 60.5084 73.0935 58.4852 73.0935 56.1599V55.571C73.0935 53.276 73.56 51.2678 74.493 49.5465C75.4561 47.8253 76.7803 46.4965 78.4657 45.5604C80.1812 44.6243 82.1525 44.1562 84.3796 44.1562C86.6067 44.1562 88.5629 44.6243 90.2483 45.5604C91.9638 46.4965 93.288 47.8253 94.221 49.5465C95.184 51.2678 95.6656 53.276 95.6656 55.571V56.1599C95.6656 58.4852 95.184 60.5084 94.221 62.2297C93.288 63.9208 91.9638 65.2344 90.2483 66.1705C88.5629 67.1067 86.6067 67.5748 84.3796 67.5748ZM84.3796 64.3587C86.7271 64.3587 88.593 63.6188 89.9774 62.1391C91.3919 60.6292 92.0992 58.6059 92.0992 56.0693V55.6616C92.0992 53.125 91.3919 51.1168 89.9774 49.6371C88.593 48.1272 86.7271 47.3723 84.3796 47.3723C82.0622 47.3723 80.1962 48.1272 78.7817 49.6371C77.3672 51.1168 76.6599 53.125 76.6599 55.6616V56.0693C76.6599 58.6059 77.3672 60.6292 78.7817 62.1391C80.1962 63.6188 82.0622 64.3587 84.3796 64.3587Z" fill="#272727"/>
<path d="M100.105 67.5748C99.2317 67.5748 98.4944 67.2879 97.8925 66.7141C97.3206 66.1403 97.0347 65.4005 97.0347 64.4946C97.0347 63.5886 97.3206 62.8488 97.8925 62.275C98.4944 61.7012 99.2317 61.4144 100.105 61.4144C101.007 61.4144 101.745 61.7012 102.317 62.275C102.888 62.8488 103.174 63.5886 103.174 64.4946C103.174 65.4005 102.888 66.1403 102.317 66.7141C101.745 67.2879 101.007 67.5748 100.105 67.5748Z" fill="#272727"/>
</svg>
